<?xml version="1.0" encoding="utf-8"?>
<!-- Generator: Adobe Illustrator 18.1.0, SVG Export Plug-In . SVG Version: 6.00 Build 0)  -->
<svg version="1.1" id="Capa_1" xmlns="http://www.w3.org/2000/svg" xmlns:xlink="http://www.w3.org/1999/xlink" x="0px" y="0px"
	 viewBox="29.2 140.5 612 655.6" enable-background="new 29.2 140.5 612 655.6" xml:space="preserve">
<g>
	<g>
		<path fill="#1ABC9C" d="M64.4,721.4V325.1h147.3V177.9h278v319.5c4.2,0,8.3,0,14.5,0c8.3,0,16.5,0,24.9,2V140.5H188.9L29.2,310.6
			v450.2h352.7c-10.4-12.5-16.5-24.9-22.8-39.4L64.4,721.4L64.4,721.4z M172.3,211v74.7h-70.6L172.3,211z"/>
		<rect x="110.1" y="433" fill="#4AB898" width="327.8" height="43.5"/>
		<path fill="#4AB898" d="M419.2,520.2H110.1v43.5h261.5C383.9,547.1,400.5,530.6,419.2,520.2z"/>
		<path fill="#4AB898" d="M110.1,653h230.3c0-14.5,2-29,6.2-43.5H108.1V653H110.1z"/>
		<path fill="#4AB898" d="M502.1,518.1c-76.7,0-138.9,62.2-138.9,138.9s62.2,139.1,139.1,139.1s138.9-62.2,138.9-139.1
			S579,518.1,502.1,518.1z M568.6,679.9h-45.7v45.7h-41.5v-45.7h-45.7v-41.5h45.7v-47.7h41.5v45.7h45.7V679.9z"/>
	</g>
</g>
</svg>
