<?xml version="1.0" encoding="utf-8"?>
<!-- Generator: Adobe Illustrator 18.1.0, SVG Export Plug-In . SVG Version: 6.00 Build 0)  -->
<svg version="1.1" id="Capa_1" xmlns="http://www.w3.org/2000/svg" xmlns:xlink="http://www.w3.org/1999/xlink" x="0px" y="0px"
	 viewBox="29.2 208.7 612 655.6" enable-background="new 29.2 208.7 612 655.6" xml:space="preserve">
<g opacity="0.45">
	<g>
		<path fill="#1ABC9C" d="M64.4,789.6V393.3h147.3V246.1h278v319.5c4.2,0,8.3,0,14.5,0c8.3,0,16.5,0,24.9,2V208.7H188.9L29.2,378.8
			V829h352.7c-10.4-12.5-16.5-24.9-22.8-39.4H64.4L64.4,789.6z M172.3,279.2v74.7h-70.6L172.3,279.2z"/>
		<rect x="110.1" y="501.2" fill="#4AB898" width="327.8" height="43.5"/>
		<path fill="#4AB898" d="M419.2,588.4H110.1v43.5h261.5C383.9,615.3,400.5,598.8,419.2,588.4z"/>
		<path fill="#4AB898" d="M110.1,721.2h230.3c0-14.5,2-29,6.2-43.5H108.1v43.5H110.1z"/>
		<path fill="#4AB898" d="M502.1,586.3c-76.7,0-138.9,62.2-138.9,138.9s62.2,139.1,139.1,139.1s138.9-62.2,138.9-139.1
			S579,586.3,502.1,586.3z M568.6,748.1h-45.7v45.7h-41.5v-45.7h-45.7v-41.5h45.7v-47.7h41.5v45.7h45.7V748.1z"/>
	</g>
</g>
</svg>
