<?xml version="1.0" encoding="utf-8"?>
<!-- Generator: Adobe Illustrator 18.1.0, SVG Export Plug-In . SVG Version: 6.00 Build 0)  -->
<svg version="1.1" id="Capa_1" xmlns="http://www.w3.org/2000/svg" xmlns:xlink="http://www.w3.org/1999/xlink" x="0px" y="0px"
	 viewBox="0 181 612 612" enable-background="new 0 181 612 612" xml:space="preserve">
<g opacity="0.45">
	<g id="_x38__3_">
		<g>
			<path fill="#4AB898" d="M306,181C137,181,0,318,0,487s137,306,306,306s306-137,306-306S475,181,306,181z M306,754.8
				C158.1,754.8,38.2,634.9,38.2,487S158.1,219.2,306,219.2S573.8,339.1,573.8,487S453.9,754.8,306,754.8z M420.8,467.9h-95.6v-95.6
				c0-10.6-8.6-19.1-19.1-19.1s-19.1,8.6-19.1,19.1v95.6h-95.6c-10.6,0-19.1,8.6-19.1,19.1s8.6,19.1,19.1,19.1H287v95.6
				c0,10.6,8.6,19.1,19.1,19.1s19.1-8.6,19.1-19.1v-95.6h95.6c10.6,0,19.1-8.6,19.1-19.1S431.3,467.9,420.8,467.9z"/>
		</g>
	</g>
</g>
</svg>
