<?xml version="1.0" encoding="utf-8"?>
<!-- Generator: Adobe Illustrator 18.1.0, SVG Export Plug-In . SVG Version: 6.00 Build 0)  -->
<svg version="1.1" id="Capa_1" xmlns="http://www.w3.org/2000/svg" xmlns:xlink="http://www.w3.org/1999/xlink" x="0px" y="0px"
	 viewBox="-105 287 612 612" enable-background="new -105 287 612 612" xml:space="preserve">
<g>
	<g>
		<path fill="#DF5A46" d="M201,287c-168.8,0-306,137.2-306,306S32.2,899,201,899s306-137.2,306-306S369.8,287,201,287z M201,858.9
			C54.4,858.9-64.9,739.6-64.9,593S54.3,327.1,201,327.1c146.6,0,265.9,119.3,265.9,265.9S347.6,858.9,201,858.9z"/>
		<path fill="#DF5A46" d="M301.2,492.8c-7.8-7.8-20.5-7.8-28.3,0L201,564.7l-71.8-71.8c-7.8-7.8-20.5-7.8-28.3,0s-7.8,20.5,0,28.3
			l71.6,71.8l-71.8,71.8c-7.8,7.8-7.8,20.5,0,28.3c4,4,9,5.8,14.2,5.8s10.3-2,14.2-5.8l71.8-71.8l71.8,71.8c4,4,9,5.8,14.2,5.8
			c5.2,0,10.3-2,14.2-5.8c7.8-7.8,7.8-20.5,0-28.3L229.3,593l71.8-71.8C309,513.4,309,500.7,301.2,492.8z"/>
	</g>
</g>
</svg>
